<svg width="20" height="20" viewBox="0 0 20 20" fill="none" xmlns="http://www.w3.org/2000/svg">
<path d="M10.5677 14.6216C10.422 14.781 10.216 14.8718 10 14.8718C9.78403 14.8718 9.57801 14.781 9.43229 14.6216L5.32972 10.1344C5.04306 9.8209 5.06484 9.33433 5.37838 9.04767C5.69192 8.761 6.17849 8.78279 6.46515 9.09633L9.23077 12.1212V0.769231C9.23077 0.344397 9.57517 0 10 0C10.4248 0 10.7692 0.344397 10.7692 0.769231V12.1212L13.5348 9.09633C13.8215 8.78279 14.3081 8.761 14.6216 9.04767C14.9352 9.33433 14.9569 9.8209 14.6703 10.1344L10.5677 14.6216Z" fill="#465968"/>
<path d="M1.53846 13.0769C1.53846 12.6521 1.19407 12.3077 0.769232 12.3077C0.344398 12.3077 5.4361e-07 12.6521 5.4361e-07 13.0769V13.1332C-2.01806e-05 14.5359 -3.68861e-05 15.6664 0.119512 16.5556C0.243632 17.4788 0.509163 18.2561 1.12651 18.8735C1.74386 19.4908 2.52117 19.7564 3.44436 19.8805C4.33356 20 5.46414 20 6.8668 20H13.1332C14.5359 20 15.6664 20 16.5556 19.8805C17.4788 19.7564 18.2561 19.4908 18.8735 18.8735C19.4908 18.2561 19.7564 17.4788 19.8805 16.5556C20 15.6664 20 14.5359 20 13.1332V13.0769C20 12.6521 19.6556 12.3077 19.2308 12.3077C18.8059 12.3077 18.4615 12.6521 18.4615 13.0769C18.4615 14.5491 18.4599 15.5759 18.3557 16.3506C18.2546 17.1032 18.0695 17.5018 17.7856 17.7856C17.5018 18.0695 17.1032 18.2546 16.3506 18.3557C15.5759 18.4599 14.5491 18.4615 13.0769 18.4615H6.92308C5.45086 18.4615 4.42407 18.4599 3.64935 18.3557C2.89676 18.2546 2.49823 18.0695 2.21437 17.7856C1.93051 17.5018 1.74544 17.1032 1.64425 16.3506C1.5401 15.5759 1.53846 14.5491 1.53846 13.0769Z" fill="#465968"/>
</svg>
