<svg width="20" height="21" viewBox="0 0 20 21" fill="none" xmlns="http://www.w3.org/2000/svg">
<path d="M10.4651 6.09884C10.4651 5.71352 10.7775 5.40116 11.1628 5.40116H14.6512C15.0365 5.40116 15.3488 5.71352 15.3488 6.09884V9.58721C15.3488 9.97252 15.0365 10.2849 14.6512 10.2849C14.2658 10.2849 13.9535 9.97252 13.9535 9.58721V7.78317L7.03317 14.7035H8.83721C9.22252 14.7035 9.53488 15.0158 9.53488 15.4012C9.53488 15.7865 9.22252 16.0988 8.83721 16.0988H5.34884C4.96352 16.0988 4.65116 15.7865 4.65116 15.4012V11.9128C4.65116 11.5275 4.96352 11.2151 5.34884 11.2151C5.73415 11.2151 6.04651 11.5275 6.04651 11.9128V13.7168L12.9668 6.79651H11.1628C10.7775 6.79651 10.4651 6.48415 10.4651 6.09884Z" fill="#465968"/>
<path fill-rule="evenodd" clip-rule="evenodd" d="M9.94663 0.75C7.79928 0.749988 6.11646 0.749979 4.80345 0.926509C3.45951 1.1072 2.39902 1.48426 1.56664 2.31664C0.734257 3.14902 0.357197 4.20951 0.176509 5.55345C-2.12636e-05 6.86646 -1.17796e-05 8.54928 1.96781e-07 10.6966V10.8034C-1.17796e-05 12.9507 -2.12636e-05 14.6335 0.176509 15.9466C0.357197 17.2905 0.734257 18.351 1.56664 19.1834C2.39902 20.0157 3.45951 20.3928 4.80345 20.5735C6.11646 20.75 7.79929 20.75 9.94663 20.75H10.0534C12.2007 20.75 13.8835 20.75 15.1966 20.5735C16.5405 20.3928 17.601 20.0157 18.4334 19.1834C19.2657 18.351 19.6428 17.2905 19.8235 15.9466C20 14.6335 20 12.9507 20 10.8034V10.6966C20 8.54929 20 6.86646 19.8235 5.55345C19.6428 4.20951 19.2657 3.14902 18.4334 2.31664C17.601 1.48426 16.5405 1.1072 15.1966 0.926509C13.8835 0.749979 12.2007 0.749988 10.0534 0.75H9.94663ZM2.5533 3.3033C3.08321 2.77339 3.80016 2.4693 4.98937 2.30941C6.19866 2.14683 7.7877 2.14535 10 2.14535C12.2123 2.14535 13.8013 2.14683 15.0106 2.30941C16.1998 2.4693 16.9168 2.77339 17.4467 3.3033C17.9766 3.83321 18.2807 4.55016 18.4406 5.73937C18.6032 6.94866 18.6047 8.5377 18.6047 10.75C18.6047 12.9623 18.6032 14.5513 18.4406 15.7606C18.2807 16.9498 17.9766 17.6668 17.4467 18.1967C16.9168 18.7266 16.1998 19.0307 15.0106 19.1906C13.8013 19.3532 12.2123 19.3547 10 19.3547C7.7877 19.3547 6.19866 19.3532 4.98937 19.1906C3.80016 19.0307 3.08321 18.7266 2.5533 18.1967C2.02339 17.6668 1.7193 16.9498 1.55941 15.7606C1.39683 14.5513 1.39535 12.9623 1.39535 10.75C1.39535 8.5377 1.39683 6.94866 1.55941 5.73937C1.7193 4.55016 2.02339 3.83321 2.5533 3.3033Z" fill="#465968"/>
</svg>
